<?xml version="1.0" encoding="utf-8"?>
<svg version="1.1" xmlns:xlink="http://www.w3.org/1999/xlink" width="103px" height="64px" xmlns="http://www.w3.org/2000/svg">
  <g transform="matrix(1 0 0 1 0 -20 )">
    <path d="M 71.1110302032889 48.6006  C 71.1110302032889 48.6006  68.2264288456969 45.665133378125  68.2264288456969 45.665133378125  C 67.4606324580249 46.0287020455823  66.6705468259238 46.3404581663531  65.861667244575 46.598233378125  C 65.861667244575 46.598233378125  65.861667244575 51  65.861667244575 51  L 54.1310520628588 51  C 54.1310520628588 51  54.1310520628588 46.6011  54.1310520628588 46.6011  C 53.2387880370724 46.3145760665786  52.36948928697 45.9629107680924  51.5303968280165 45.549033378125  C 51.5303968280165 45.549033378125  48.326902064311 48.5819666890625  48.326902064311 48.5819666890625  L 39.7109574290642 40.5796666890625  C 39.7109574290642 40.5796666890625  43.1416090227132 37.2686666890625  43.1416090227132 37.2686666890625  C 42.808781676211 36.6082623634343  42.5170175371923 35.928566119539  42.2679286450219 35.233333378125  C 42.2679286450219 35.233333378125  38 35.233333378125  38 35.233333378125  L 38 23.7666666890625  C 38 23.7666666890625  41.98689481295 23.7666666890625  41.98689481295 23.7666666890625  C 42.2406458179911 22.9254397487286  42.555996682998 22.1034201472391  42.9304696208566 21.3070666890625  C 42.9304696208566 21.3070666890625  39.8958864195901 18.2411666890625  39.8958864195901 18.2411666890625  L 48.2992355417695 10.086933378125  C 48.2992355417695 10.086933378125  51.18092467694 12.7973666890625  51.18092467694 12.7973666890625  C 52.1267316232886 12.3042973827935  53.1137167674359 11.8919003739061  54.1310520628588 11.5647  C 54.1310520628588 11.5647  54.1310520628588 8  54.1310520628588 8  L 65.863123424042 8  C 65.863123424042 8  65.863123424042 11.5647  65.863123424042 11.5647  C 66.7906917464987 11.8626400098463  67.6933059756912 12.231163073283  68.5627957911081 12.666933378125  C 68.5627957911081 12.666933378125  71.1386967258304 10.064  71.1386967258304 10.064  L 79.1153985741518 18.2813  C 79.1153985741518 18.2813  76.7215143392777 20.652033378125  76.7215143392777 20.652033378125  C 77.2454758321571 21.64922609791  77.6749116500597 22.6918506346682  78.0043683832731 23.7666666890625  C 78.0043683832731 23.7666666890625  82 23.7666666890625  82 23.7666666890625  L 82 35.233333378125  C 82 35.233333378125  77.7291590643003 35.233333378125  77.7291590643003 35.233333378125  C 77.3966129802968 36.1535961925365  76.9895286370424 37.0460867965606  76.5118310486317 37.9022  C 76.5118310486317 37.9022  79.2974153422562 40.5366666890625  79.2974153422562 40.5366666890625  L 71.1110302032889 48.6006  Z M 70 48  L 70 61  L 67 61.0009782686255  L 67 48  L 70 48  Z M 70 64  L 69.9999400996206 61.312  L 69.999933146898 61  L 103 61  L 103 64  L 70 64  Z M 34.6038992688871 0  L 33.2335280091976 3  L 0 3  L 0 0  L 34.6038992688871 0  Z M 29 40  L 16 40  L 33.233541562585 3  L 35 3  L 35.0001706109319 0  L 70 0  L 70 5.81818179958678  L 67.0550771273355 5.81818179958678  L 67.0550771273355 3  L 36.5047928284931 3  L 20.5592201233753 37  L 32 37  L 32 53  L 42 53  L 42 64  L 39.075385842303 64  L 39.075385842303 56  L 29 56  L 29 40  Z M 51.051220350636 42.3029230346737  C 51.7201824266667 42.6932356395374  52.4160019121139 43.0329829021264  53.1329273247531 43.3196830126601  L 53.1329273247531 45  L 56.0731828198407 45.0000000043127  L 56.0731828198407 48  L 61.9166570950785 48  L 61.9166570950785 44.2189999565992  C 61.9166570950785 44.2189999565992  63.0052327797353 43.9266923101402  63.0052327797353 43.9266923101402  C 64.3188958816381 43.5834731438204  65.5832960964109 43.0716379105334  66.7673503459093 42.4037691884593  C 66.7673503459093 42.4037691884593  67.7557770675776 41.8440000036995  67.7557770675776 41.8440000036995  L 70.1056491348688 44.2876922870867  L 74.0724189297582 40.2933076741026  L 71.7501240904664 38.0396153677647  C 71.7501240904664 38.0396153677647  72.3814979875673 37.0355384452912  72.3814979875673 37.0355384452912  C 73.1760143352239 35.7760693719277  73.7892935047351 34.4095894910575  74.203048011917 32.9768461172014  C 74.203048011917 32.9768461172014  74.5049463124499 31.923076909902  74.5049463124499 31.923076909902  L 78 31.923076909902  L 78 26.076923090098  L 74.6617012110405 26.076923090098  C 74.6617012110405 26.076923090098  74.4004430467228 24.9456923215471  74.4004430467228 24.9456923215471  C 74.0329997063185 23.3701994695455  73.426426240102 21.8612026694225  72.6021160156698 20.4719230477933  C 72.6021160156698 20.4719230477933  72.0215423398648 19.5029230483757  72.0215423398648 19.5029230483757  L 73.978075681076 17.5196153800964  L 70.0751690156984 13.4068461517988  L 68.043161048327 15.5056154041433  C 68.043161048327 15.5056154041433  67.05038002392 14.9122307434422  67.05038002392 14.9122307434422  C 65.789274822748 14.1603942666888  64.4302287971716 13.5892811379753  63.012489973645 13.2153845906158  C 63.012489973645 13.2153845906158  61.9166570950785 12.9230769441568  61.9166570950785 12.9230769441568  L 61.9166570950785 10  L 56.0746342314083 10  L 56.0746342314083 12.9230769441568  C 56.0746342314083 12.9230769441568  54.9846071351839 13.2153845906158  54.9846071351839 13.2153845906158  C 53.4934580218244 13.6059374730815  52.0674207154591 14.2150898744357  50.7522248732382 15.0233077121254  C 50.7522248732382 15.0233077121254  49.7884725564341 15.6166923043169  49.7884725564341 15.6166923043169  L 47.3703830568924 13.2913846362432  L 43.0712348422998 17.5605384341583  L 45.5488331005787 20.1211538172349  C 45.5488331005787 20.1211538172349  45.0437339828979 21.0623846087365  45.0437339828979 21.0623846087365  C 44.3918789552238 22.2871752599367  43.9038320354467 23.5934346999067  43.5922997593675 24.9471538371712  C 43.5922997593675 24.9471538371712  43.3382987209236 26.076923090098  43.3382987209236 26.076923090098  L 40 26.076923090098  L 40 31.923076909902  L 43.4965050991177 31.923076909902  C 43.4965050991177 31.923076909902  43.7998548112181 32.9826923167171  43.7998548112181 32.9826923167171  C 44.149558275545 34.2013369310567  44.6447247693968 35.3727844340844  45.2745120280451 36.4713845766398  C 45.2745120280451 36.4713845766398  45.8362170813281 37.4476922911973  45.8362170813281 37.4476922911973  L 42.9812458963561 40.2538461356648  L 47.3457087200642 44.4031538026423  L 50.093273748138 41.743153849914  C 50.093273748138 41.743153849914  51.051220350636 42.3029230346737  51.051220350636 42.3029230346737  Z M 53.1329273247531 33.4999999663086  L 53.1329273551618 43.3197848921209  C 53.7359111415326 43.5610034751982  54.353801716211 43.7647551451386  54.9831557236164 43.9296153413885  C 54.9831557236164 43.9296153413885  56.0731828198407 44.221923056357  56.0731828198407 44.221923056357  L 56.0731827865439 45  L 56 45  L 56 30.6250000084228  L 50.0664636980619 30.6250000084228  L 50.0664636980619 25  L 66.9381040233638 25  L 66.9381040233638 30.6911249860265  L 60.8051767699814 30.9599374638281  L 60.8051767699814 40.6874999957886  L 63.8670726752469 40.6874999957886  L 63.8670726752469 33.7041250114298  L 70 33.433874988705  L 70 22  L 47 22  L 47 33.4999999663086  L 53.1329273247531 33.4999999663086  Z " fill-rule="nonzero" fill="#64877d" stroke="none" transform="matrix(1 0 0 1 0 20 )" />
  </g>
</svg>