<?xml version="1.0" encoding="utf-8"?>
<svg version="1.1" xmlns:xlink="http://www.w3.org/1999/xlink" width="125px" height="127px" xmlns="http://www.w3.org/2000/svg">
  <defs>
    <mask fill="white" id="clip68">
      <path d="M 0 38.7711359480938  L 27.5610218749882 10.3116827022348  L 84.803393852491 0  L 125 56.2276692629005  L 115.465499242792 96.3341186672071  L 90.3556800446366 127  L 32.6630878512722 123.071751603412  L 0 104.988292055073  L 0 38.7711359480938  Z " fill-rule="evenodd" />
    </mask>
  </defs>
  <g transform="matrix(1 0 0 1 25 8 )">
    <path d="M 0 38.7711359480938  L 27.5610218749882 10.3116827022348  L 84.803393852491 0  L 125 56.2276692629005  L 115.465499242792 96.3341186672071  L 90.3556800446366 127  L 32.6630878512722 123.071751603412  L 0 104.988292055073  L 0 38.7711359480938  Z " fill-rule="nonzero" fill="#ffffff" stroke="none" fill-opacity="0" transform="matrix(1 0 0 1 -25 -8 )" />
    <path d="M 0 38.7711359480938  L 27.5610218749882 10.3116827022348  L 84.803393852491 0  L 125 56.2276692629005  L 115.465499242792 96.3341186672071  L 90.3556800446366 127  L 32.6630878512722 123.071751603412  L 0 104.988292055073  L 0 38.7711359480938  Z " stroke-width="4" stroke="#1b6179" fill="none" transform="matrix(1 0 0 1 -25 -8 )" mask="url(#clip68)" />
  </g>
</svg>