<?xml version="1.0" encoding="utf-8"?>
<svg version="1.1" xmlns:xlink="http://www.w3.org/1999/xlink" width="110px" height="70px" xmlns="http://www.w3.org/2000/svg">
  <g transform="matrix(1 0 0 1 -130 -127 )">
    <path d="M 150 196.5  L 230 196.5  C 235.32 196.5  239.5 192.32  239.5 187  L 239.5 147  C 239.5 143.019603773678  237.16005511139 139.677374335159  233.753426824863 138.246573175137  C 232.804162307016 135.986446856925  231.013553143075 134.195837692984  228.753426824863 133.246573175137  C 227.322625664841 129.83994488861  223.980396226322 127.5  220 127.5  L 140 127.5  C 134.68 127.5  130.5 131.68  130.5 137  L 130.5 177  C 130.5 180.980396226322  132.83994488861 184.322625664841  136.246573175137 185.753426824863  C 137.195837692984 188.013553143075  138.986446856925 189.804162307016  141.246573175137 190.753426824863  C 142.677374335159 194.16005511139  146.019603773678 196.5  150 196.5  Z " fill-rule="nonzero" fill="#ffffff" stroke="none" />
    <path d="M 150.5 196.5  L 229.5 196.5  C 235.1 196.5  239.5 192.1  239.5 186.5  L 239.5 147.5  C 239.5 143.382075431273  237.120786603431 139.913027243428  233.634752186914 138.365247813086  C 232.644031495375 136.13386628665  230.86613371335 134.355968504626  228.634752186914 133.365247813086  C 227.086972756572 129.879213396569  223.617924568727 127.5  219.5 127.5  L 140.5 127.5  C 134.9 127.5  130.5 131.9  130.5 137.5  L 130.5 176.5  C 130.5 180.617924568727  132.879213396569 184.086972756572  136.365247813086 185.634752186914  C 137.355968504626 187.86613371335  139.13386628665 189.644031495374  141.365247813086 190.634752186914  C 142.913027243428 194.120786603431  146.382075431273 196.5  150.5 196.5  Z " stroke-width="1" stroke="#797979" fill="none" />
    <path d="M 233.678014577568 138.071985422432  C 234.207220379431 139.263905668009  234.5 140.592028340291  234.5 142  L 234.5 181.5  C 234.5 187.1  230.1 191.5  224.5 191.5  L 145 191.5  C 141.087971659709 191.5  137.792375881257 189.23974727326  136.321985422432 185.928014577568  M 228.678014577568 133.071985422432  C 229.207220379431 134.263905668009  229.5 135.592028340291  229.5 137  L 229.5 176.499  C 229.5 182.099  225.1 186.499  219.5 186.499  L 140 186.5  C 138.592028340291 186.5  137.263905668009 186.207220379431  136.071985422432 185.678014577568  " stroke-width="1" stroke="#797979" fill="none" />
  </g>
</svg>