<?xml version="1.0" encoding="utf-8"?>
<svg version="1.1" xmlns:xlink="http://www.w3.org/1999/xlink" width="87px" height="80px" xmlns="http://www.w3.org/2000/svg">
  <g transform="matrix(1 0 0 1 -185 -493 )">
    <path d="M 271.5 509  C 271.5 509  271.5 557  271.5 557  C 271.5 565.857011494253  252.09875 572.5  228.5 572.5  C 204.90125 572.5  185.5 565.857011494253  185.5 557  C 185.5 557  185.5 509  185.5 509  C 185.5 500.142988505747  204.90125 493.5  228.5 493.5  C 252.09875 493.5  271.5 500.142988505747  271.5 509  Z " fill-rule="nonzero" fill="#ffffff" stroke="none" />
    <path d="M 185.5 509.3  C 185.5 500.452  204.42 493.5  228.5 493.5  C 252.58 493.5  271.5 500.452  271.5 509.3  C 271.5 509.3  271.5 556.7  271.5 556.7  C 271.5 565.548  252.58 572.5  228.5 572.5  C 204.42 572.5  185.5 565.548  185.5 556.7  C 185.5 556.7  185.5 509.3  185.5 509.3  Z " stroke-width="1" stroke="#797979" fill="none" />
    <path d="M 271.5 509  C 271.5 517.68  252.58 524.5  228.5 524.5  C 204.42 524.5  185.5 517.68  185.5 509  " stroke-width="1" stroke="#797979" fill="none" />
  </g>
</svg>