<svg t="1603291451829" class="icon" viewBox="0 0 1028 1024" version="1.1" xmlns="http://www.w3.org/2000/svg" p-id="10585" width="200" height="200"><path d="M4.626506 512c0 281.188755 228.240964 509.429719 509.429719 509.429719s509.429719-228.240964 509.429719-509.429719S795.24498 2.570281 514.056225 2.570281C232.86747 2.570281 4.626506 230.811245 4.626506 512z m455.967872-250.345382l268.851405 213.333334c14.393574 12.851406 23.13253 21.076305 23.13253 37.012048s-10.281124 24.674699-23.13253 37.012048l-268.851405 213.333334c-6.168675 3.084337-12.337349 4.626506-19.020081 4.626506-7.710843 0-15.421687-2.056225-22.104417-6.168675-12.337349-7.710843-20.562249-21.076305-20.562249-35.46988v-426.666666c0-14.393574 8.2249-27.759036 20.562249-35.46988 12.851406-7.710843 28.273092-8.2249 41.124498-1.542169z" fill="#707070" p-id="10586"></path></svg>