<?xml version="1.0" encoding="utf-8"?>
<svg version="1.1" xmlns:xlink="http://www.w3.org/1999/xlink" width="8px" height="8px" xmlns="http://www.w3.org/2000/svg">
  <defs>
    <mask fill="white" id="clip74">
      <path d="M 7.99776848953975 4.00000000000001  C 7.99776848953975 6.20904446901874  6.20755451546841 7.99986631151284  3.99912623870518 7.99999999264277  C 2.57040486507924 8.00008647636044  1.25017488174358 7.23770969903727  0.535789235032965 6.00006987669991  C -0.178596411677653 4.76243005436256  -0.178596411677653 3.23756994563744  0.535789235032961 1.99993012330009  C 1.25017488174358 0.762290300962733  2.57040486507924 -8.64763604443157E-05  3.99912623870518 0  C 6.20755451546841 0.000133688487159682  7.99776848953975 1.79095553098126  7.99776848953975 4.00000000000001  Z M 0.999963058788861 4.0000000073242  C 0.999963058788861 5.65685425478038  2.34273415218337 7.00000000363733  3.99912623870518 7.00000000363733  C 5.65551832522699 7.00000000363733  6.9982894186215 5.65685425478038  6.9982894186215 4.0000000073242  C 6.9982894186215 2.34314575986801  5.65551832522699 1.00000001101107  3.99912623870518 1.00000001101107  C 2.34273415218337 1.00000001101107  0.999963058788861 2.34314575986801  0.999963058788861 4.0000000073242  Z " fill-rule="evenodd" />
    </mask>
  </defs>
  <g transform="matrix(1 0 0 1 -19 -68 )">
    <path d="M 7.99776848953975 4.00000000000001  C 7.99776848953975 6.20904446901874  6.20755451546841 7.99986631151284  3.99912623870518 7.99999999264277  C 2.57040486507924 8.00008647636044  1.25017488174358 7.23770969903727  0.535789235032965 6.00006987669991  C -0.178596411677653 4.76243005436256  -0.178596411677653 3.23756994563744  0.535789235032961 1.99993012330009  C 1.25017488174358 0.762290300962733  2.57040486507924 -8.64763604443157E-05  3.99912623870518 0  C 6.20755451546841 0.000133688487159682  7.99776848953975 1.79095553098126  7.99776848953975 4.00000000000001  Z M 0.999963058788861 4.0000000073242  C 0.999963058788861 5.65685425478038  2.34273415218337 7.00000000363733  3.99912623870518 7.00000000363733  C 5.65551832522699 7.00000000363733  6.9982894186215 5.65685425478038  6.9982894186215 4.0000000073242  C 6.9982894186215 2.34314575986801  5.65551832522699 1.00000001101107  3.99912623870518 1.00000001101107  C 2.34273415218337 1.00000001101107  0.999963058788861 2.34314575986801  0.999963058788861 4.0000000073242  Z " fill-rule="nonzero" fill="#f5a623" stroke="none" transform="matrix(1 0 0 1 19 68 )" />
    <path d="M 7.99776848953975 4.00000000000001  C 7.99776848953975 6.20904446901874  6.20755451546841 7.99986631151284  3.99912623870518 7.99999999264277  C 2.57040486507924 8.00008647636044  1.25017488174358 7.23770969903727  0.535789235032965 6.00006987669991  C -0.178596411677653 4.76243005436256  -0.178596411677653 3.23756994563744  0.535789235032961 1.99993012330009  C 1.25017488174358 0.762290300962733  2.57040486507924 -8.64763604443157E-05  3.99912623870518 0  C 6.20755451546841 0.000133688487159682  7.99776848953975 1.79095553098126  7.99776848953975 4.00000000000001  Z " stroke-width="1.8" stroke="#f5a623" fill="none" transform="matrix(1 0 0 1 19 68 )" mask="url(#clip74)" />
    <path d="M 0.999963058788861 4.0000000073242  C 0.999963058788861 5.65685425478038  2.34273415218337 7.00000000363733  3.99912623870518 7.00000000363733  C 5.65551832522699 7.00000000363733  6.9982894186215 5.65685425478038  6.9982894186215 4.0000000073242  C 6.9982894186215 2.34314575986801  5.65551832522699 1.00000001101107  3.99912623870518 1.00000001101107  C 2.34273415218337 1.00000001101107  0.999963058788861 2.34314575986801  0.999963058788861 4.0000000073242  Z " stroke-width="1.8" stroke="#f5a623" fill="none" transform="matrix(1 0 0 1 19 68 )" mask="url(#clip74)" />
  </g>
</svg>