<?xml version="1.0" encoding="utf-8"?>
<svg version="1.1" xmlns:xlink="http://www.w3.org/1999/xlink" width="16px" height="14px" xmlns="http://www.w3.org/2000/svg">
  <defs>
    <mask fill="white" id="clip75">
      <path d="M 15.9999972353981 7.84000273156258  C 15.9999972353981 6.7816032008947  15.7874259277186 5.75680365532738  15.3714261643028 4.78800408492768  C 14.9698392587099 3.85649936170982  14.3876545889322 3.01019680738761  13.6571414249522 2.29600518996891  C 12.1581609258648 0.823662250691938  10.1222913050908 -0.00261301810088403  8.00000178509496 0  C 5.87771226509909 -0.00261301810088676  3.84184264432507 0.823662250691936  2.34286214523775 2.2960051899689  C 0.840471579088023 3.76500626310606  -0.00266634466687329 5.76015874141068  0 7.84000273156258  C 0 10.1617617020118  1.04000574333124 12.3502407315621  2.85486185405715 13.8432000695307  C 2.85486185405715 13.8432000695307  2.88571897936546 13.8689600581078  2.88571897936546 13.8689600581078  C 2.9885760637265 13.9529600208592  3.12000456041005 14  3.25371877007941 14  C 3.25371877007941 14  12.7485705130963 14  12.7485705130963 14  C 12.8830364870481 13.9994898086197  13.0131351717988 13.9531633581156  13.1165703038103 13.8689600581078  C 13.1165703038103 13.8689600581078  13.1462845726257 13.844320069034  13.1462845726257 13.844320069034  C 14.9570473637644 12.3551455673291  16.0019615705465 10.1566073017922  15.9999972353981 7.84000273156258  Z " fill-rule="evenodd" />
    </mask>
  </defs>
  <g transform="matrix(1 0 0 1 -16 -18 )">
    <path d="M 15.9999972353981 7.84000273156258  C 15.9999972353981 6.7816032008947  15.7874259277186 5.75680365532738  15.3714261643028 4.78800408492768  C 14.9698392587099 3.85649936170982  14.3876545889322 3.01019680738761  13.6571414249522 2.29600518996891  C 12.1581609258648 0.823662250691938  10.1222913050908 -0.00261301810088403  8.00000178509496 0  C 5.87771226509909 -0.00261301810088676  3.84184264432507 0.823662250691936  2.34286214523775 2.2960051899689  C 0.840471579088023 3.76500626310606  -0.00266634466687329 5.76015874141068  0 7.84000273156258  C 0 10.1617617020118  1.04000574333124 12.3502407315621  2.85486185405715 13.8432000695307  C 2.85486185405715 13.8432000695307  2.88571897936546 13.8689600581078  2.88571897936546 13.8689600581078  C 2.9885760637265 13.9529600208592  3.12000456041005 14  3.25371877007941 14  C 3.25371877007941 14  12.7485705130963 14  12.7485705130963 14  C 12.8830364870481 13.9994898086197  13.0131351717988 13.9531633581156  13.1165703038103 13.8689600581078  C 13.1165703038103 13.8689600581078  13.1462845726257 13.844320069034  13.1462845726257 13.844320069034  C 14.9570473637644 12.3551455673291  16.0019615705465 10.1566073017922  15.9999972353981 7.84000273156258  Z " fill-rule="nonzero" fill="#ffffff" stroke="none" fill-opacity="0" transform="matrix(1 0 0 1 16 18 )" />
    <path d="M 15.9999972353981 7.84000273156258  C 15.9999972353981 6.7816032008947  15.7874259277186 5.75680365532738  15.3714261643028 4.78800408492768  C 14.9698392587099 3.85649936170982  14.3876545889322 3.01019680738761  13.6571414249522 2.29600518996891  C 12.1581609258648 0.823662250691938  10.1222913050908 -0.00261301810088403  8.00000178509496 0  C 5.87771226509909 -0.00261301810088676  3.84184264432507 0.823662250691936  2.34286214523775 2.2960051899689  C 0.840471579088023 3.76500626310606  -0.00266634466687329 5.76015874141068  0 7.84000273156258  C 0 10.1617617020118  1.04000574333124 12.3502407315621  2.85486185405715 13.8432000695307  C 2.85486185405715 13.8432000695307  2.88571897936546 13.8689600581078  2.88571897936546 13.8689600581078  C 2.9885760637265 13.9529600208592  3.12000456041005 14  3.25371877007941 14  C 3.25371877007941 14  12.7485705130963 14  12.7485705130963 14  C 12.8830364870481 13.9994898086197  13.0131351717988 13.9531633581156  13.1165703038103 13.8689600581078  C 13.1165703038103 13.8689600581078  13.1462845726257 13.844320069034  13.1462845726257 13.844320069034  C 14.9570473637644 12.3551455673291  16.0019615705465 10.1566073017922  15.9999972353981 7.84000273156258  Z " stroke-width="4" stroke="#3aa1a9" fill="none" transform="matrix(1 0 0 1 16 18 )" mask="url(#clip75)" />
  </g>
</svg>