<?xml version="1.0" encoding="utf-8"?>
<svg version="1.1" xmlns:xlink="http://www.w3.org/1999/xlink" width="165px" height="100px" xmlns="http://www.w3.org/2000/svg">
  <g transform="matrix(1 0 0 1 -1140 -531 )">
    <path d="M 1160 630.5  L 1295 630.5  C 1300.32 630.5  1304.5 626.32  1304.5 621  L 1304.5 551  C 1304.5 547.019603773678  1302.16005511139 543.677374335159  1298.75342682486 542.246573175137  C 1297.80416230702 539.986446856925  1296.01355314308 538.195837692984  1293.75342682486 537.246573175137  C 1292.32262566484 533.83994488861  1288.98039622632 531.5  1285 531.5  L 1150 531.5  C 1144.68 531.5  1140.5 535.68  1140.5 541  L 1140.5 611  C 1140.5 614.980396226322  1142.83994488861 618.322625664841  1146.24657317514 619.753426824863  C 1147.19583769298 622.013553143075  1148.98644685692 623.804162307016  1151.24657317514 624.753426824863  C 1152.67737433516 628.16005511139  1156.01960377368 630.5  1160 630.5  Z " fill-rule="nonzero" fill="#facd91" stroke="none" />
    <path d="M 1160.5 630.5  L 1294.5 630.5  C 1300.1 630.5  1304.5 626.1  1304.5 620.5  L 1304.5 551.5  C 1304.5 547.382075431273  1302.12078660343 543.913027243428  1298.63475218691 542.365247813086  C 1297.64403149537 540.13386628665  1295.86613371335 538.355968504625  1293.63475218691 537.365247813086  C 1292.08697275657 533.879213396569  1288.61792456873 531.5  1284.5 531.5  L 1150.5 531.5  C 1144.9 531.5  1140.5 535.9  1140.5 541.5  L 1140.5 610.5  C 1140.5 614.617924568727  1142.87921339657 618.086972756572  1146.36524781309 619.634752186914  C 1147.35596850463 621.86613371335  1149.13386628665 623.644031495375  1151.36524781309 624.634752186914  C 1152.91302724343 628.120786603431  1156.38207543127 630.5  1160.5 630.5  Z " stroke-width="1" stroke="#797979" fill="none" />
    <path d="M 1298.67801457757 542.071985422432  C 1299.20722037943 543.263905668009  1299.5 544.592028340291  1299.5 546  L 1299.5 615.5  C 1299.5 621.1  1295.1 625.5  1289.5 625.5  L 1155 625.5  C 1151.08797165971 625.5  1147.79237588126 623.23974727326  1146.32198542243 619.928014577568  M 1293.67801457757 537.071985422432  C 1294.20722037943 538.263905668009  1294.5 539.592028340291  1294.5 541  L 1294.5 610.499  C 1294.5 616.099  1290.1 620.499  1284.5 620.499  L 1150 620.5  C 1148.59202834029 620.5  1147.26390566801 620.207220379431  1146.07198542243 619.678014577568  " stroke-width="1" stroke="#797979" fill="none" />
  </g>
</svg>