<?xml version="1.0" encoding="utf-8"?>
<svg version="1.1" xmlns:xlink="http://www.w3.org/1999/xlink" width="74px" height="87px" xmlns="http://www.w3.org/2000/svg">
  <g transform="matrix(1 0 0 1 -1140 -657 )">
    <path d="M 1213.5 671.8  C 1213.5 671.8  1213.5 729.2  1213.5 729.2  C 1213.5 737.376  1197.02 743.5  1177 743.5  C 1156.98 743.5  1140.5 737.376  1140.5 729.2  C 1140.5 729.2  1140.5 671.8  1140.5 671.8  C 1140.5 663.624  1156.98 657.5  1177 657.5  C 1197.02 657.5  1213.5 663.624  1213.5 671.8  Z " fill-rule="nonzero" fill="#d7d7d7" stroke="none" />
    <path d="M 1140.5 672.129885057471  C 1140.5 663.937149425287  1156.56 657.5  1177 657.5  C 1197.44 657.5  1213.5 663.937149425287  1213.5 672.129885057471  C 1213.5 672.129885057471  1213.5 728.870114942529  1213.5 728.870114942529  C 1213.5 737.062850574713  1197.44 743.5  1177 743.5  C 1156.56 743.5  1140.5 737.062850574713  1140.5 728.870114942529  C 1140.5 728.870114942529  1140.5 672.129885057471  1140.5 672.129885057471  Z " stroke-width="1" stroke="#555555" fill="none" />
    <path d="M 1213.5 671.8  C 1213.5 679.808  1197.44 686.1  1177 686.1  C 1156.56 686.1  1140.5 679.808  1140.5 671.8  " stroke-width="1" stroke="#555555" fill="none" />
  </g>
</svg>