<?xml version="1.0" encoding="utf-8"?>
<svg version="1.1" xmlns:xlink="http://www.w3.org/1999/xlink" width="653px" height="100px" xmlns="http://www.w3.org/2000/svg">
  <g transform="matrix(1 0 0 1 -247 -165 )">
    <path d="M 267 264.5  L 890 264.5  C 895.32 264.5  899.5 260.32  899.5 255  L 899.5 185  C 899.5 181.019603773683  897.160055111396 177.677374335168  893.753426824876 176.246573175142  C 892.804162307021 173.98644685693  891.013553143079 172.195837692985  888.753426824863 171.246573175137  C 887.322625664841 167.83994488861  883.980396226322 165.5  880 165.5  L 257 165.5  C 251.68 165.5  247.5 169.68  247.5 175  L 247.5 245  C 247.5 248.980396226317  249.839944888604 252.322625664832  253.246573175124 253.753426824858  C 254.195837692979 256.01355314307  255.986446856921 257.804162307014  258.246573175137 258.753426824863  C 259.677374335159 262.16005511139  263.019603773678 264.5  267 264.5  Z " fill-rule="nonzero" fill="#facd91" stroke="none" />
    <path d="M 267.5 264.5  L 889.5 264.5  C 895.1 264.5  899.5 260.1  899.5 254.5  L 899.5 185.5  C 899.5 181.382075431272  897.12078660343 177.913027243426  893.634752186911 176.365247813085  C 892.644031495372 174.133866286648  890.866133713348 172.355968504625  888.634752186914 171.365247813086  C 887.086972756572 167.879213396569  883.617924568727 165.5  879.5 165.5  L 257.5 165.5  C 251.9 165.5  247.5 169.9  247.5 175.5  L 247.5 244.5  C 247.5 248.617924568728  249.87921339657 252.086972756574  253.365247813089 253.634752186915  C 254.355968504628 255.866133713352  256.133866286652 257.644031495375  258.365247813086 258.634752186914  C 259.913027243428 262.120786603431  263.382075431273 264.5  267.5 264.5  Z " stroke-width="1" stroke="#797979" fill="none" />
    <path d="M 893.678014577566 176.071985422427  C 894.20722037943 177.263905668006  894.5 178.592028340289  894.5 180  L 894.5 249.5  C 894.5 255.1  890.1 259.5  884.5 259.5  L 262 259.5  C 258.087971659711 259.5  254.79237588126 257.239747273262  253.321985422434 253.928014577573  M 888.678014577568 171.071985422432  C 889.207220379431 172.263905668009  889.5 173.592028340291  889.5 175  L 889.5 244.499  C 889.5 250.099  885.1 254.499  879.5 254.499  L 257 254.5  C 255.592028340292 254.5  254.263905668012 254.207220379431  253.071985422435 253.67801457757  " stroke-width="1" stroke="#797979" fill="none" />
  </g>
</svg>