<?xml version="1.0" encoding="utf-8"?>
<svg version="1.1" xmlns:xlink="http://www.w3.org/1999/xlink" width="265px" height="100px" xmlns="http://www.w3.org/2000/svg">
  <g transform="matrix(1 0 0 1 -247 -294 )">
    <path d="M 267 393.5  L 502 393.5  C 507.32 393.5  511.5 389.32  511.5 384  L 511.5 314  C 511.5 310.019603773678  509.16005511139 306.677374335159  505.753426824863 305.246573175137  C 504.804162307016 302.986446856925  503.013553143075 301.195837692984  500.753426824863 300.246573175137  C 499.322625664841 296.83994488861  495.980396226322 294.5  492 294.5  L 257 294.5  C 251.68 294.5  247.5 298.68  247.5 304  L 247.5 374  C 247.5 377.980396226322  249.83994488861 381.322625664841  253.246573175137 382.753426824863  C 254.195837692984 385.013553143075  255.986446856925 386.804162307016  258.246573175137 387.753426824863  C 259.677374335159 391.16005511139  263.019603773678 393.5  267 393.5  Z " fill-rule="nonzero" fill="#facd91" stroke="none" />
    <path d="M 267.5 393.5  L 501.5 393.5  C 507.1 393.5  511.5 389.1  511.5 383.5  L 511.5 314.5  C 511.5 310.382075431272  509.12078660343 306.913027243426  505.634752186911 305.365247813085  C 504.644031495372 303.133866286647  502.866133713347 301.355968504623  500.634752186911 300.365247813085  C 499.086972756569 296.879213396567  495.617924568726 294.5  491.5 294.5  L 257.5 294.5  C 251.9 294.5  247.5 298.9  247.5 304.5  L 247.5 373.5  C 247.5 377.617924568728  249.87921339657 381.086972756574  253.365247813089 382.634752186915  C 254.355968504628 384.866133713353  256.133866286653 386.644031495377  258.365247813089 387.634752186915  C 259.913027243431 391.120786603433  263.382075431274 393.5  267.5 393.5  Z " stroke-width="1" stroke="#797979" fill="none" />
    <path d="M 505.678014577567 305.071985422428  C 506.20722037943 306.263905668006  506.5 307.592028340289  506.5 309  L 506.5 378.5  C 506.5 384.1  502.1 388.5  496.5 388.5  L 262 388.5  C 258.087971659711 388.5  254.792375881259 386.239747273262  253.321985422433 382.928014577572  M 500.678014577567 300.071985422428  C 501.20722037943 301.263905668006  501.5 302.592028340289  501.5 304  L 501.5 373.499  C 501.5 379.099  497.1 383.499  491.5 383.499  L 257 383.5  C 255.592028340292 383.5  254.263905668012 383.207220379431  253.071985422435 382.67801457757  " stroke-width="1" stroke="#797979" fill="none" />
  </g>
</svg>