<?xml version="1.0" encoding="utf-8"?>
<svg version="1.1" xmlns:xlink="http://www.w3.org/1999/xlink" width="83px" height="52px" xmlns="http://www.w3.org/2000/svg">
  <g transform="matrix(1 0 0 1 -1074 -393 )">
    <path d="M 1094 444.5  L 1147 444.5  C 1152.32 444.5  1156.5 440.32  1156.5 435  L 1156.5 413  C 1156.5 409.019603773678  1154.16005511139 405.677374335159  1150.75342682486 404.246573175137  C 1149.80416230702 401.986446856925  1148.01355314308 400.195837692984  1145.75342682486 399.246573175137  C 1144.32262566484 395.83994488861  1140.98039622632 393.5  1137 393.5  L 1084 393.5  C 1078.68 393.5  1074.5 397.68  1074.5 403  L 1074.5 425  C 1074.5 428.980396226322  1076.83994488861 432.322625664841  1080.24657317514 433.753426824863  C 1081.19583769298 436.013553143075  1082.98644685692 437.804162307016  1085.24657317514 438.753426824863  C 1086.67737433516 442.16005511139  1090.01960377368 444.5  1094 444.5  Z " fill-rule="nonzero" fill="#facd91" stroke="none" />
    <path d="M 1094.5 444.5  L 1146.5 444.5  C 1152.1 444.5  1156.5 440.1  1156.5 434.5  L 1156.5 413.5  C 1156.5 409.382075431273  1154.12078660343 405.913027243428  1150.63475218691 404.365247813086  C 1149.64403149537 402.13386628665  1147.86613371335 400.355968504626  1145.63475218691 399.365247813086  C 1144.08697275657 395.879213396569  1140.61792456873 393.5  1136.5 393.5  L 1084.5 393.5  C 1078.9 393.5  1074.5 397.9  1074.5 403.5  L 1074.5 424.5  C 1074.5 428.617924568727  1076.87921339657 432.086972756572  1080.36524781309 433.634752186914  C 1081.35596850463 435.86613371335  1083.13386628665 437.644031495374  1085.36524781309 438.634752186914  C 1086.91302724343 442.120786603431  1090.38207543127 444.5  1094.5 444.5  Z " stroke-width="1" stroke="#797979" fill="none" />
    <path d="M 1150.67801457757 404.071985422432  C 1151.20722037943 405.263905668009  1151.5 406.592028340291  1151.5 408  L 1151.5 429.5  C 1151.5 435.1  1147.1 439.5  1141.5 439.5  L 1089 439.5  C 1085.08797165971 439.5  1081.79237588126 437.23974727326  1080.32198542243 433.928014577568  M 1145.67801457757 399.071985422432  C 1146.20722037943 400.263905668009  1146.5 401.592028340291  1146.5 403  L 1146.5 424.499  C 1146.5 430.099  1142.1 434.499  1136.5 434.499  L 1084 434.5  C 1082.59202834029 434.5  1081.26390566801 434.207220379431  1080.07198542243 433.678014577568  " stroke-width="1" stroke="#797979" fill="none" />
  </g>
</svg>