<?xml version="1.0" encoding="utf-8"?>
<svg version="1.1" xmlns:xlink="http://www.w3.org/1999/xlink" width="60px" height="80px" xmlns="http://www.w3.org/2000/svg">
  <g transform="matrix(1 0 0 1 -353 -342 )">
    <path d="M 412.5 354  C 412.5 354  412.5 410  412.5 410  C 412.5 416.608  399.1 421.5  383 421.5  C 366.9 421.5  353.5 416.608  353.5 410  C 353.5 410  353.5 354  353.5 354  C 353.5 347.392  366.9 342.5  383 342.5  C 399.1 342.5  412.5 347.392  412.5 354  Z " fill-rule="nonzero" fill="#d7d7d7" stroke="none" />
    <path d="M 353.5 354.35  C 353.5 347.714  366.48 342.5  383 342.5  C 399.52 342.5  412.5 347.714  412.5 354.35  C 412.5 354.35  412.5 409.65  412.5 409.65  C 412.5 416.286  399.52 421.5  383 421.5  C 366.48 421.5  353.5 416.286  353.5 409.65  C 353.5 409.65  353.5 354.35  353.5 354.35  Z " stroke-width="1" stroke="#555555" fill="none" />
    <path d="M 412.5 354  C 412.5 360.44  399.52 365.5  383 365.5  C 366.48 365.5  353.5 360.44  353.5 354  " stroke-width="1" stroke="#555555" fill="none" />
  </g>
</svg>