<?xml version="1.0" encoding="utf-8"?>
<svg version="1.1" xmlns:xlink="http://www.w3.org/1999/xlink" width="110px" height="70px" xmlns="http://www.w3.org/2000/svg">
  <g transform="matrix(1 0 0 1 -1253 -420 )">
    <path d="M 1273 489.5  L 1353 489.5  C 1358.32 489.5  1362.5 485.32  1362.5 480  L 1362.5 440  C 1362.5 436.019603773678  1360.16005511139 432.677374335159  1356.75342682486 431.246573175137  C 1355.80416230702 428.986446856925  1354.01355314308 427.195837692984  1351.75342682486 426.246573175137  C 1350.32262566484 422.83994488861  1346.98039622632 420.5  1343 420.5  L 1263 420.5  C 1257.68 420.5  1253.5 424.68  1253.5 430  L 1253.5 470  C 1253.5 473.980396226322  1255.83994488861 477.322625664841  1259.24657317514 478.753426824863  C 1260.19583769298 481.013553143075  1261.98644685692 482.804162307016  1264.24657317514 483.753426824863  C 1265.67737433516 487.16005511139  1269.01960377368 489.5  1273 489.5  Z " fill-rule="nonzero" fill="#facd91" stroke="none" />
    <path d="M 1273.5 489.5  L 1352.5 489.5  C 1358.1 489.5  1362.5 485.1  1362.5 479.5  L 1362.5 440.5  C 1362.5 436.382075431273  1360.12078660343 432.913027243428  1356.63475218691 431.365247813086  C 1355.64403149537 429.13386628665  1353.86613371335 427.355968504626  1351.63475218691 426.365247813086  C 1350.08697275657 422.879213396569  1346.61792456873 420.5  1342.5 420.5  L 1263.5 420.5  C 1257.9 420.5  1253.5 424.9  1253.5 430.5  L 1253.5 469.5  C 1253.5 473.617924568727  1255.87921339657 477.086972756572  1259.36524781309 478.634752186914  C 1260.35596850463 480.86613371335  1262.13386628665 482.644031495374  1264.36524781309 483.634752186914  C 1265.91302724343 487.120786603431  1269.38207543127 489.5  1273.5 489.5  Z " stroke-width="1" stroke="#797979" fill="none" />
    <path d="M 1356.67801457757 431.071985422432  C 1357.20722037943 432.263905668009  1357.5 433.592028340291  1357.5 435  L 1357.5 474.5  C 1357.5 480.1  1353.1 484.5  1347.5 484.5  L 1268 484.5  C 1264.08797165971 484.5  1260.79237588126 482.23974727326  1259.32198542243 478.928014577568  M 1351.67801457757 426.071985422432  C 1352.20722037943 427.263905668009  1352.5 428.592028340291  1352.5 430  L 1352.5 469.499  C 1352.5 475.099  1348.1 479.499  1342.5 479.499  L 1263 479.5  C 1261.59202834029 479.5  1260.26390566801 479.207220379431  1259.07198542243 478.678014577568  " stroke-width="1" stroke="#797979" fill="none" />
  </g>
</svg>